<svg width="300" height="300" viewBox="0 0 300 300" xmlns="http://www.w3.org/2000/svg">
    <g>
        <g transform="translate(150 150)">
            <g>
                <g>
                    <path fill="#e41a1c"
                          d="M3.472186883263917,-138.8585392341706A7.875,7.875,0,0,1,11.986880380006872,-146.51045934934274A147,147,0,0,1,132.87521990666156,62.87428675346015A7.875,7.875,0,0,1,121.99111595082185,66.42226756949164L108.13356690428061,58.8770473831481A7.875,7.875,0,0,1,104.75684345427702,48.6441543198779A115.5,115.5,0,0,0,10.251348340513712,-115.04416481161245A7.875,7.875,0,0,1,3.0777647185139543,-123.0849396325053Z"></path>
                </g>
                <g>
                    <path fill="#e41a1c"
                          d="M2.5327216717322676,-101.28775997589017A7.875,7.875,0,0,1,11.211572589748341,-108.92451808507029A109.5,109.5,0,0,1,99.93718605152256,44.75275236343978A7.875,7.875,0,0,1,88.98413406740772,48.45047867950953L75.10222786562622,40.89199640051286A7.875,7.875,0,0,1,71.63557827781334,30.86007007126326A78,78,0,0,0,9.092184494624833,-77.46826563900669A7.875,7.875,0,0,1,2.137606238507141,-85.4864354126963Z"></path>
                </g>
                <g>
                    <path fill="#e41a1c"
                          d="M1.590824534696817,-63.61972396434777A7.875,7.875,0,0,1,10.625531200413164,-71.21164291539021A72,72,0,0,1,66.98385741016067,26.403841509433143A7.875,7.875,0,0,1,55.89170940222722,30.432167522162878L41.918782051670405,22.824125641622153A7.875,7.875,0,0,1,38.24754752542397,13.318224667365907A40.49999999999999,40.49999999999999,0,0,0,7.589852867464556,-39.78246012315276A7.875,7.875,0,0,1,1.1931184010226126,-47.71479297326083Z"></path>
                </g>
            </g>
            <g>
                <g>
                    <path fill="#377eb8"
                          d="M118.51892906755796,72.43627166467896A7.875,7.875,0,0,1,120.8883395266547,83.63617259588258A147,147,0,0,1,-120.88833952665462,83.63617259588268A7.875,7.875,0,0,1,-118.51892906755788,72.43627166467907L-105.0558021857666,64.20789224935729A7.875,7.875,0,0,1,-94.50549511376323,66.40001049173465A115.5,115.5,0,0,0,94.50549511376332,66.40001049173453A7.875,7.875,0,0,1,105.05580218576668,64.20789224935717Z"></path>
                </g>
                <g>
                    <path fill="#377eb8"
                          d="M86.45141239567548,52.83728129638058A7.875,7.875,0,0,1,88.72561346177424,64.17176572163045A109.5,109.5,0,0,1,-88.72561346177416,64.17176572163056A7.875,7.875,0,0,1,-86.4514123956754,52.83728129638068L-72.96462162711904,44.594439012183486A7.875,7.875,0,0,1,-62.54339378318847,46.60819556774347A78,78,0,0,0,62.54339378318852,46.6081955677434A7.875,7.875,0,0,1,72.96462162711909,44.5944390121834Z"></path>
                </g>
                <g>
                    <path fill="#377eb8"
                          d="M54.30088486753041,33.18755644218488A7.875,7.875,0,0,1,56.3583262097475,44.80780140595706A72,72,0,0,1,-56.35832620974745,44.80780140595712A7.875,7.875,0,0,1,-54.30088486753037,33.18755644218493L-40.72566365064777,24.890667331638692A7.875,7.875,0,0,1,-30.657694657959397,26.464235455786866A40.49999999999999,40.49999999999999,0,0,0,30.657694657959425,26.464235455786845A7.875,7.875,0,0,1,40.725663650647796,24.89066733163866Z"></path>
                </g>
            </g>
            <g>
                <g>
                    <path fill="#4daf4a"
                          d="M-121.99111595082184,66.42226756949162A7.875,7.875,0,0,1,-132.87521990666153,62.87428675346015A147,147,0,0,1,-11.98688038000696,-146.5104593493427A7.875,7.875,0,0,1,-3.472186883263987,-138.8585392341706L-3.0777647185140156,-123.08493963250528A7.875,7.875,0,0,1,-10.251348340513779,-115.04416481161243A115.5,115.5,0,0,0,-104.75684345427702,48.64415431987792A7.875,7.875,0,0,1,-108.13356690428061,58.87704738314811Z"></path>
                </g>
                <g>
                    <path fill="#4daf4a"
                          d="M-88.98413406740772,48.45047867950955A7.875,7.875,0,0,1,-99.93718605152256,44.7527523634398A109.5,109.5,0,0,1,-11.211572589748412,-108.92451808507028A7.875,7.875,0,0,1,-2.5327216717323253,-101.28775997589015L-2.13760623850719,-85.48643541269628A7.875,7.875,0,0,1,-9.092184494624874,-77.46826563900666A78,78,0,0,0,-71.63557827781332,30.860070071263277A7.875,7.875,0,0,1,-75.10222786562622,40.89199640051287Z"></path>
                </g>
                <g>
                    <path fill="#4daf4a"
                          d="M-55.891709402227214,30.43216752216289A7.875,7.875,0,0,1,-66.98385741016065,26.403841509433153A72,72,0,0,1,-10.625531200413214,-71.21164291539021A7.875,7.875,0,0,1,-1.5908245346968517,-63.61972396434777L-1.1931184010226366,-47.71479297326082A7.875,7.875,0,0,1,-7.589852867464572,-39.78246012315275A40.49999999999999,40.49999999999999,0,0,0,-38.247547525423975,13.318224667365907A7.875,7.875,0,0,1,-41.9187820516704,22.82412564162216Z"></path>
                </g>
            </g>
        </g>
    </g>
</svg>
