<svg width="480" height="480" viewBox="0 0 480 480" xmlns="http://www.w3.org/2000/svg">
    <g>
        <g transform="translate(240 240)">
            <g>
                <g>
                    <path fill="#1f77b4"
                          d="M2.8767462456923516,-230.12771308783715A5,5 0 0,1 8.047431986025734,-235.0622871462589A235.2,235.2 0 0,1 207.59362813334542,110.56186303800364A5,5 0 0,1 200.73481877172978,112.5725212149074L171.0715501104102,95.9372958907088A5,5 0 0,1 169.0952818744885,89.24251031760187A191.2,191.2 0 0,0 7.261359904706105,-191.0620649221983A5,5 0 0,1 2.4516396434667858,-196.1209562057522Z"></path>
                </g>
                <g>
                    <path fill="#1f77b4"
                          d="M2.206557591299357,-176.51541321821244A5,5 0 0,1 7.410192083825729,-181.4487504869648A181.6,181.6 0 0,1 160.84432344856842,84.3069606519669A5,5 0 0,1 153.97011080212914,86.3467716801275L124.30032213402485,69.70788992199988A5,5 0 0,1 122.30189219124331,63.055587908142584A137.6,137.6 0 0,0 6.54320511660726,-137.44433952259368A5,5 0 0,1 1.7813575503512293,-142.50118162765463Z"></path>
                </g>
                <g>
                    <path fill="#1f77b4"
                          d="M1.5361891439188335,-122.8887306587309A5,5 0 0,1 6.801481390834545,-127.81916855812408A128,128 0 0,1 114.09538775735788,58.019328611232176A5,5 0 0,1 107.19285716124396,60.11398650571384L77.50387707035254,43.46434215611321A5,5 0 0,1 75.45800845959947,36.90648939293757A84,84 0 0,0 5.767046851014861,-83.80179694146301A5,5 0 0,1 1.1107140692033184,-88.85249751276817Z"></path>
                </g>
            </g>
            <g>
                <g>
                    <path fill="#aec7e8"
                          d="M197.8580725260374,117.55519187292968A5,5 0 0,1 199.54619614731965,124.50042410825523A235.2,235.2 0 0,1 -199.54619614731962,124.50042410825536A5,5 0 0,1 -197.85807252603738,117.55519187292981L-168.6199104669433,100.18366031504348A5,5 0 0,1 -161.8339219697823,101.81955460459649A191.2,191.2 0 0,0 161.8339219697823,101.81955460459643A5,5 0 0,1 168.6199104669433,100.1836603150434Z"></path>
                </g>
                <g>
                    <path fill="#aec7e8"
                          d="M151.7635532108298,90.16864153808484A5,5 0 0,1 153.4341313647427,97.14178983499782A181.6,181.6 0 0,1 -153.4341313647426,97.14178983499794A5,5 0 0,1 -151.76355321082968,90.16864153808496L-122.51896458367355,72.79329170565475A5,5 0 0,1 -115.75868707463597,74.38875161445111A137.6,137.6 0 0,0 115.75868707463606,74.38875161445102A5,5 0 0,1 122.51896458367361,72.79329170565467Z"></path>
                </g>
                <g>
                    <path fill="#aec7e8"
                          d="M105.65666801732512,62.77474415301702A5,5 0 0,1 107.29390636652334,69.79983994689185A128,128 0 0,1 -107.29390636652329,69.79983994689194A5,5 0 0,1 -105.65666801732509,62.77474415301709L-76.3931630011492,45.388155356655A5,5 0 0,1 -69.69096160858459,46.89530754852547A84,84 0 0,0 69.6909616085846,46.89530754852541A5,5 0 0,1 76.39316300114922,45.388155356654934Z"></path>
                </g>
            </g>
            <g>
                <g>
                    <path fill="#ff7f0e"
                          d="M-200.73481877172975,112.57252121490752A5,5 0 0,1 -207.59362813334542,110.56186303800376A235.2,235.2 0 0,1 -8.047431986025819,-235.0622871462589A5,5 0 0,1 -2.876746245692434,-230.12771308783715L-2.451639643466856,-196.1209562057522A5,5 0 0,1 -7.261359904706174,-191.0620649221983A191.2,191.2 0 0,0 -169.09528187448845,89.24251031760194A5,5 0 0,1 -171.07155011041013,95.93729589070887Z"></path>
                </g>
                <g>
                    <path fill="#ff7f0e"
                          d="M-153.9701108021291,86.34677168012762A5,5 0 0,1 -160.84432344856842,84.30696065196702A181.6,181.6 0 0,1 -7.410192083825794,-181.4487504869648A5,5 0 0,1 -2.2065575912994193,-176.51541321821244L-1.78135755035128,-142.5011816276546A5,5 0 0,1 -6.543205116607309,-137.44433952259365A137.6,137.6 0 0,0 -122.30189219124327,63.05558790814268A5,5 0 0,1 -124.30032213402481,69.70788992199996Z"></path>
                </g>
                <g>
                    <path fill="#ff7f0e"
                          d="M-107.19285716124396,60.11398650571391A5,5 0 0,1 -114.09538775735788,58.01932861123225A128,128 0 0,1 -6.801481390834586,-127.81916855812408A5,5 0 0,1 -1.5361891439188735,-122.8887306587309L-1.1107140692033486,-88.85249751276818A5,5 0 0,1 -5.767046851014889,-83.80179694146301A84,84 0 0,0 -75.45800845959945,36.906489392937615A5,5 0 0,1 -77.50387707035253,43.464342156113254Z"></path>
                </g>
            </g>
        </g>
    </g>
</svg>